<svg id="Layer_1" data-name="Layer 1" xmlns="http://www.w3.org/2000/svg" viewBox="0 0 19.24 21.02"><defs><style>.cls-1{fill:#fff2e2;}</style></defs><title>Artboard 1Dark Toggle</title><path class="cls-1" d="M15.74,3.09,13.21,5l.91,3.06L11.49,6.28,8.86,8.09,9.77,5,7.24,3.09,10.43,3l1.06-3,1.06,3,3.19.09M19.24,10,17.6,11.25l.59,2-1.7-1.17-1.7,1.17.59-2L13.74,10,15.8,10,16.49,8,17.18,10l2.06.05M17,15c.83-.08,1.72,1.1,1.19,1.85a8.55,8.55,0,0,1-1.08,1.27A10,10,0,0,1,2.93,3.93,9.94,9.94,0,0,1,4.2,2.85C5,2.32,6.13,3.21,6.05,4A10,10,0,0,0,17,15m-1.64,2a12.08,12.08,0,0,1-7.8-3.47A12.07,12.07,0,0,1,4,5.68,8,8,0,0,0,15.32,17Z"/></svg>